<?xml version="1.0" encoding="utf-8"?>
<!-- Generator: Adobe Illustrator 20.0.0, SVG Export Plug-In . SVG Version: 6.00 Build 0)  -->
<svg version="1.1" id="Layer_1" xmlns="http://www.w3.org/2000/svg" xmlns:xlink="http://www.w3.org/1999/xlink" x="0px" y="0px"
	 viewBox="0 0 229.5 35.4" style="enable-background:new 0 0 229.5 35.4;" xml:space="preserve">
<style type="text/css">
	.st0{fill:#FFFFFF;}
</style>
<title>Asset 2</title>
<g>
	<path class="st0" d="M1.5,12.5h1.1L9.1,22l6.5-9.5h1.1v16.1h-1.2v-14l-6.4,9.3H9l-6.4-9.3v14H1.5V12.5z"/>
	<path class="st0" d="M26.7,22.2l-6.9-9.7h1.5l6,8.6l6-8.6h1.4l-6.9,9.7v6.4h-1.2V22.2z"/>
	<path class="st0" d="M44.8,12.5H46v15h9.5v1.1H44.8V12.5z"/>
	<path class="st0" d="M59.2,12.5h1.2v16.1h-1.2V12.5z"/>
	<path class="st0" d="M65.4,12.5h11.3v1.1H66.6v6.6h9.1v1.1h-9.1v7.3h-1.2V12.5z"/>
</g>
<path class="st0" d="M80.4,12.5h11.5v1.1H81.6v6.3h9.2V21h-9.2v6.5H92v1.1H80.4V12.5z"/>
<g>
	<path class="st0" d="M101.6,20.5L101.6,20.5c0-4.6,3.4-8.4,8.4-8.4c3,0,4.9,1,6.3,2.5l-2.3,2.6c-1.2-1.1-2.5-1.8-4.1-1.8
		c-2.7,0-4.7,2.3-4.7,5v0c0,2.8,1.9,5.1,4.7,5.1c1.8,0,3-0.7,4.2-1.9l2.3,2.3c-1.7,1.8-3.5,2.9-6.6,2.9
		C105.1,28.8,101.6,25.2,101.6,20.5z"/>
	<path class="st0" d="M118.1,20.5L118.1,20.5c0-4.6,3.6-8.4,8.6-8.4s8.5,3.7,8.5,8.3v0c0,4.6-3.6,8.3-8.6,8.3S118.1,25.1,118.1,20.5
		z M131.5,20.5L131.5,20.5c0-2.8-2-5.1-4.9-5.1c-2.9,0-4.8,2.3-4.8,5v0c0,2.8,2,5.1,4.9,5.1S131.5,23.3,131.5,20.5z"/>
	<path class="st0" d="M135.9,12.5h3.9l4.2,11.3l4.2-11.3h3.8l-6.5,16.2h-3.1L135.9,12.5z"/>
	<path class="st0" d="M154.6,12.5h12.1v3.2h-8.6v3.3h7.6V22h-7.6v3.4h8.7v3.2h-12.3V12.5z"/>
	<path class="st0" d="M170,12.5h7.4c2,0,3.6,0.6,4.7,1.6c0.9,0.9,1.4,2.2,1.4,3.7v0c0,2.6-1.4,4.2-3.4,5l3.9,5.7h-4.1l-3.4-5.2h-2.8
		v5.2H170V12.5z M177.1,20.3c1.7,0,2.7-0.9,2.7-2.3v0c0-1.5-1.1-2.3-2.8-2.3h-3.5v4.6H177.1z"/>
	<path class="st0" d="M186.6,12.5h12.1v3.2h-8.6v3.3h7.6V22h-7.6v3.4h8.7v3.2h-12.3V12.5z"/>
	<path class="st0" d="M202,12.5h6.3c5.1,0,8.6,3.5,8.6,8v0c0,4.5-3.5,8-8.6,8H202V12.5z M205.6,15.6v9.7h2.7c2.9,0,4.9-2,4.9-4.8v0
		c0-2.9-2-4.9-4.9-4.9H205.6z"/>
</g>
<g>
	<path class="st0" d="M219.8,13.2h-1.5v-1h4v1h-1.5V17h-1.1V13.2z"/>
	<path class="st0" d="M223.2,12.2h1.2l1.3,2.1l1.3-2.1h1.2V17H227v-3.2l-1.4,2.1h0l-1.4-2.1V17h-1.1V12.2z"/>
</g>
</svg>
